/* XPM */
static char *_28cf1d348cc4b18cce7b913ff9dccba498CqGVdpDdUJil2[] = {
/* columns rows colors chars-per-pixel */
"24 24 145 2 ",
"   c None",
".  c #00344F",
"X  c #00476C",
"o  c #0B476A",
"O  c #004971",
"+  c #01537F",
"@  c #07547E",
"#  c #07557E",
"$  c #005781",
"%  c #005782",
"&  c #005885",
"*  c #005886",
"=  c #025788",
"-  c #025B8A",
";  c #005E8D",
":  c #015E8D",
">  c #015F8E",
",  c #155E85",
"<  c #006192",
"1  c #066391",
"2  c #006194",
"3  c #006494",
"4  c #016598",
"5  c #01669A",
"6  c #00679C",
"7  c #016899",
"8  c #016999",
"9  c #00689D",
"0  c #02699E",
"q  c #0D6B9B",
"w  c #00709F",
"e  c #006DA4",
"r  c #006EA4",
"t  c #0B6EA1",
"y  c #0070A0",
"u  c #0071A3",
"i  c #0072A3",
"p  c #0A70A4",
"a  c #0873A6",
"s  c #0070A9",
"d  c #0172A8",
"f  c #0D76AB",
"g  c #017BB4",
"h  c #007FB7",
"j  c #0B7DB3",
"k  c #0080B7",
"l  c #0083B6",
"z  c #0183B7",
"x  c #0384BA",
"c  c #0883B8",
"v  c #018BBF",
"b  c #0A8CBF",
"n  c #2785B3",
"m  c #2383B6",
"M  c #2883B3",
"N  c #218CBE",
"B  c #2B8CBB",
"V  c #2D8FBD",
"C  c #338DB8",
"Z  c #4692BC",
"A  c #028CC0",
"S  c #008FC2",
"D  c #018FC3",
"F  c #0092C4",
"G  c #0093C5",
"H  c #0096C7",
"J  c #0596C7",
"K  c #0097C8",
"L  c #0098C8",
"P  c #009CCA",
"I  c #009CCB",
"U  c #039ECD",
"Y  c #099BCA",
"T  c #0B9FCD",
"R  c #1896C5",
"E  c #1C9FCB",
"W  c #2893C3",
"Q  c #2498C4",
"!  c #3A96C1",
"~  c #0CA3CF",
"^  c #14A1CE",
"/  c #00A7D2",
"(  c #00A7D3",
")  c #00A7D4",
"_  c #08A3D0",
"`  c #00A8D3",
"'  c #00A8D4",
"]  c #00A9D4",
"[  c #00A9D5",
"{  c #00AAD5",
"}  c #01ABD5",
"|  c #00ABD6",
" . c #05ABD6",
".. c #00ACD7",
"X. c #00ADD7",
"o. c #05ACD6",
"O. c #04ADD7",
"+. c #07ACD6",
"@. c #07ADD7",
"#. c #15AFD7",
"$. c #19ADD6",
"%. c #19AFD7",
"&. c #0EB0D7",
"*. c #16B0D7",
"=. c #15B0D8",
"-. c #17B3DA",
";. c #19B2D9",
":. c #18B3DA",
">. c #1AB3DA",
",. c #1CB5DA",
"<. c #1FB4DA",
"1. c #1FB6DB",
"2. c #23B5DB",
"3. c #20B6DB",
"4. c #2EBBDE",
"5. c #30B1D7",
"6. c #3DB1D6",
"7. c #30B4D8",
"8. c #31BBDD",
"9. c #3FBCDE",
"0. c #3FBFDF",
"q. c #4AA3CB",
"w. c #5EA5CA",
"e. c #4DB4D7",
"r. c #44B9DB",
"t. c #40BFDF",
"y. c #4EB8DA",
"u. c #5FB5D6",
"i. c #6AA9CB",
"p. c #69BDDC",
"a. c #70B4D4",
"s. c #4DC1E0",
"d. c #50C4E2",
"f. c #59C5E2",
"g. c #59C8E4",
"h. c #5FCCE6",
"j. c #69CDE7",
"k. c #7BCDE5",
"l. c #7FCEE6",
"z. c #7FD1E8",
"x. c #82BAD6",
"c. c #81CEE5",
"v. c #A7D8EA",
"b. c #B8D9EA",
"n. c #96E0F1",
/* pixels */
"                        t                       ",
"                      1 2                       ",
"                      q i.                      ",
"                      x.b.o                     ",
"                    , v.z.Z                     ",
"                    w.j.9.a.                    ",
"                    C $.#.k.M                   ",
"                    X F } g.q.                  ",
"                - n + r ` <.c.=                 ",
"                B n.u.m ^ } h.!                 ",
"              # p.2.d.l.8.) #.p.@               ",
"              V s.) +.2.+.} ) f.V               ",
"            f y.;.} L i i L } ,.e.a             ",
"            W 0. .H $     % K +.9.N             ",
"          5 r.-.X.2         2 X.1.6.&           ",
"          Q 4.} I O         O I } 7.j           ",
"        a 5.+.} S             S U g 1           ",
"        R ;.} ..A             S ;.E 0           ",
"      c *.+.} ( l             h ( &.$.b s       ",
"    5 T _ F l r ;             ; w l J _ Y ;     ",
"    s x 8 .                           8 x r     ",
"  6 &                                     & 0   ",
"                                                ",
"                                                "
};
